<svg height="80" viewBox="0 0 79 80" width="79" xmlns="http://www.w3.org/2000/svg"><g fill="none" fill-rule="evenodd" transform="translate(-5 -10)"><path d="m0 0h100v100h-100z"/><path d="m27.5 75c4.15 0 7.5 3.35 7.5 7.5s-3.35 7.5-7.5 7.5-7.5-3.35-7.5-7.5 3.35-7.5 7.5-7.5zm45 0c4.15 0 7.5 3.35 7.5 7.5s-3.35 7.5-7.5 7.5-7.5-3.35-7.5-7.5 3.35-7.5 7.5-7.5zm-67.5-61.25c0 2.05 1.7 3.75 3.75 3.75h5.2l13.65 31.85-5.4 9.4c-2.9 5 .7 11.25 6.5 11.25h47.6c2.05 0 3.75-1.7 3.75-3.75s-1.7-3.75-3.75-3.75h-47.65l4.35-7.5h33.35c3 0 5.7-1.8 6.9-4.55l10.3-24.05c.8-1.9-.05-4.1-1.95-4.9s-4.1.05-4.9 1.95l-10.35 24.05h-31.4l-14.8-34.45c-.75-1.85-2.55-3.05-4.55-3.05h-6.85c-2.05 0-3.75 1.7-3.75 3.75zm42.35 23.6c1.45 1.45 3.85 1.45 5.3 0l8.8-8.8c1.95-1.95 1.95-5.1 0-7.05l-8.8-8.8c-1.45-1.45-3.85-1.45-5.3 0s-1.45 3.85 0 5.3l3.3 3.3h-11.9c-2.05-.05-3.75 1.65-3.75 3.7s1.7 3.75 3.75 3.75h11.9l-3.3 3.3c-1.45 1.45-1.45 3.85 0 5.3z" fill="#e21266" fill-rule="nonzero"/></g></svg>